<?xml version="1.0" encoding="UTF-8"?>
<svg version="1.1" viewBox="0 0 450 450" xmlns="http://www.w3.org/2000/svg">
<g transform="translate(-1.5227 -40.271)">
<path d="m129.21 420.96c-10.304-2.4795-15.676-9.3858-17.025-21.888-0.48429-4.4899-2.3256-15.453-4.0919-24.363-7.0895-35.763-18.068-59.522-43.163-93.405-5.9995-8.1006-2.6105-17.087 7.7755-20.618 11.455-3.8944 33.624-0.41424 50.137 7.8709 15.353 7.7026 34.997 23.464 45.383 36.414 3.5017 4.3658 6.7788 7.9378 7.2825 7.9378s4.8653-8.25 9.6926-18.333c9.9759-20.838 19.462-48.16 23.432-67.488 3.0065-14.638 5.5994-18.666 13.402-20.821 5.9568-1.6447 13.297 0.19458 17.152 4.2982 1.8749 1.9958 3.8094 7.5394 5.7048 16.348 5.0535 23.487 15.463 51.873 28.558 77.875l4.7913 9.5143 6.4252-7.7207c15.136-18.188 35.222-33.487 53.9-41.054 23.925-9.6931 48.199-8.0738 53.008 3.5361 1.9045 4.5979 0.70073 8.4288-4.7692 15.178-5.8078 7.1656-18.188 26.43-22.277 34.667-10.735 21.62-18.701 49.519-22.273 78.003-1.5256 12.167-4.4047 18.061-10.606 21.711-6.0259 3.5469-13.707 3.0289-31.472-2.1221-22.731-6.591-38.24-9.0346-62.686-9.8774-29.874-1.0298-59.27 2.699-85.679 10.869-13.289 4.111-17.345 4.7333-22.602 3.4683zm49.404-36.659c17.834-3.0194 44.438-4.2981 66.896-3.2153 20.516 0.98917 28.265 2.1 51.783 7.4229 16.389 3.7093 19.687 3.474 20.66-1.4739 0.68488-3.482-2.1057-5.9269-13.036-11.421-13.453-6.7621-30.758-12.758-45.041-15.607-17.369-3.4641-48.64-3.0939-67.033 0.79369-23.024 4.8663-54.646 18.731-55.746 24.441-0.22981 1.1933 0.75537 3.3429 2.1893 4.7768 2.5873 2.5873 2.697 2.5839 14.415-0.44571 6.4945-1.6791 17.705-4.0512 24.912-5.2715zm-148.45-128.57c-10.65-3.4469-20.052-11.954-25.001-22.622-2.898-6.2471-3.2386-8.5048-2.7338-18.123 0.65896-12.555 4.0264-19.868 12.625-27.417 8.2353-7.2307 15.72-9.9601 27.119-9.8896 8.097 0.0501 11.269 0.72226 16.667 3.532 24.326 12.662 30.265 43.307 12.257 63.241-7.2086 7.9791-15.669 11.673-27.59 12.047-5.5 0.1724-11.504-0.17327-13.342-0.76814zm367.11-1.6093c-24.762-9.5212-32.684-42.923-14.958-63.061 15.281-17.36 41.432-18.208 58.108-1.8835 7.9803 7.8117 11.669 16.829 11.617 28.401-0.0713 16.074-7.544 27.962-22.17 35.271-9.9958 4.9949-21.726 5.4528-32.599 1.2724zm-187.28-69.563c-15.067-7.7995-22.108-20.708-20.854-38.231 2.3278-32.534 41.675-47.157 65.522-24.351 7.861 7.5179 11.479 16.314 11.494 27.949 0.0215 15.928-7.2898 27.764-21.552 34.891-11.792 5.8924-22.888 5.8096-34.61-0.25843z" stroke-width="1.3333"/>
<path d="m30.516 255.4c-9.5513-2.6873-19.407-11.36-24.431-21.497-3.4719-7.006-4.0374-10.361-3.263-19.359 0.66649-7.7431 1.5961-11.658 3.782-15.927 3.8678-7.5545 13.125-15.625 21.164-18.451 5.9589-2.0944 16.217-2.8344 22.63-1.6324 6.7574 1.2665 16.185 7.1951 21.297 13.393 6.2367 7.561 9.386 16.159 9.386 25.623 0 6.8062-1.019 11.08-4.2 17.613-2.1082 4.33-3.2508 5.8815-7.373 10.012-5.2682 5.2785-9.6949 8.0116-15.666 9.6722-4.6209 1.2852-19.473 1.6371-23.328 0.55261z" fill="#009831" stroke-opacity=".2" stroke-width="2.0386"/>
<path d="m219.77 187.96c-8.3124-2.3378-13.874-5.5161-19.827-11.33-3.5664-3.4834-4.8514-5.2002-6.6023-8.8209-3.1967-6.6104-4.0371-11.084-3.6978-19.684 0.39336-9.9702 2.8502-16.726 8.426-23.169 12.441-14.375 32.694-17.851 48.782-8.3714 4.7367 2.7911 10.433 8.1775 13.297 12.574 7.4129 11.378 7.6515 28.713 0.56074 40.739-1.8893 3.2044-6.3299 8.0892-9.7323 10.706-2.4959 1.9194-8.4059 4.9282-12.445 6.3358-5.1123 1.7816-14.283 2.2806-18.762 1.0209z" fill="#009831" fill-opacity=".66667" stroke-opacity=".2" stroke-width="2.0386"/>
<path d="m216.65 186.72c-13.161-4.6852-22.685-14.383-25.772-26.243-1.0802-4.1495-1.0981-14.461-0.0349-20.066 1.2947-6.825 3.9192-11.497 9.6778-17.227 4.1236-4.1034 5.7706-5.3224 10.037-7.4284 11.227-5.542 22.697-5.5501 33.893-0.0237 4.2308 2.0884 5.8621 3.3008 9.9938 7.4284 5.3894 5.3839 7.4967 8.7832 9.5776 15.45 1.0618 3.4019 1.2626 5.2036 1.2626 11.327s-0.20083 7.9251-1.2626 11.327c-2.0566 6.5892-4.2075 10.066-9.5188 15.388-3.9845 3.9922-5.687 5.2688-9.4453 7.0827-7.5222 3.6304-9.2738 4.0765-16.99 4.3264-6.6677 0.21596-7.2282 0.15013-11.417-1.341z" fill="#f4aa00" stroke-opacity=".2" stroke-width="2.0386"/>
<path d="m406.24 256.18c-18.194-3.0702-30.749-16.524-32.946-35.305-0.98529-8.4198 1.1854-17.647 5.8765-24.98 5.3513-8.3654 14.588-14.879 24.34-17.165 5.6212-1.3176 15.308-0.81494 20.89 1.084 11.921 4.0551 21.847 13.731 25.393 24.753 1.9264 5.9886 2.3752 14.952 1.0741 21.453-1.309 6.54-4.3994 12.625-8.7594 17.247-9.5152 10.087-23.272 15.04-35.868 12.914z" fill="#c2000a" fill-opacity=".99743" stroke-opacity=".2" stroke-width="2.0386"/>
<path d="m127.9 420.21c-6.6753-2.1344-11.083-6.1711-13.348-12.224-0.62129-1.6606-1.8698-7.7898-2.7744-13.62-7.2581-46.78-16.995-71.76-41.25-105.83-6.9913-9.8205-7.6198-10.895-8.0883-13.825-1.1108-6.9467 5.1563-13.093 15.056-14.765 11.254-1.9007 31.335 2.0023 44.59 8.6668 16.483 8.2876 32.63 21.289 46.718 37.617 3.3915 3.9307 6.3632 7.1468 6.6038 7.1468 0.60142 0 5.288-8.5669 9.2043-16.825 10.316-21.753 19.138-46.678 23.731-67.048 3.4678-15.379 5.1512-18.83 10.517-21.563 2.8318-1.4421 3.7345-1.6291 7.821-1.6198 7.5566 0.0172 12.438 2.9714 14.643 8.8615 0.61646 1.6469 2.299 7.8488 3.739 13.782 5.1959 21.408 11.463 39.643 20.792 60.496 4.4344 9.9124 11.995 25.003 12.51 24.968 0.22075-0.0151 2.5858-2.6994 5.2558-5.9651 5.6692-6.9342 17.451-18.644 24.002-23.856 25.446-20.242 53.808-29.218 73.65-23.306 6.3108 1.8802 10.712 6.6458 10.69 11.577-0.0138 3.2089-1.2493 5.5339-7.2524 13.648-5.8334 7.8844-13.781 20.171-18.273 28.249-10.517 18.913-19.802 49.077-23.725 77.082-2.0356 14.529-3.6841 19.596-7.6737 23.583-1.2839 1.2832-3.5479 2.9291-5.0312 3.6577-2.3762 1.1672-3.3703 1.318-8.3604 1.2679-4.803-0.0482-6.9747-0.40015-14.294-2.3166-29.716-7.7814-35.821-9.0297-51.391-10.509-35.183-3.3418-70.509-0.18854-102.33 9.1344-16.814 4.926-20.011 5.3654-25.73 3.537zm24.258-29.961c28.106-6.9012 46.453-9.0744 76.715-9.0865 24.587-0.01 38.504 1.2732 57.444 5.2962 5.0432 1.0712 11.961 2.5398 15.372 3.2635 7.8257 1.6602 13.583 1.7655 15.073 0.27578 1.5409-1.5409 1.9708-4.5816 0.88246-6.2425-3.8754-5.9146-33.309-18.575-53.712-23.103-11.296-2.5069-14.745-2.7788-35.06-2.7643-20.689 0.0148-26.258 0.4869-38.783 3.287-20.503 4.5838-49.856 17.42-52.918 23.14-0.86604 1.6182-0.019 3.9262 2.2874 6.2326 2.0535 2.0535 3.2301 2.0258 12.698-0.29909z" fill="#001859" stroke-opacity=".2" stroke-width="2.0386"/>
</g>
</svg>

